<?xml version="1.0" standalone="no"?><!DOCTYPE svg PUBLIC "-//W3C//DTD SVG 1.1//EN" "http://www.w3.org/Graphics/SVG/1.1/DTD/svg11.dtd"><svg t="1567667635432" class="icon" viewBox="0 0 1024 1024" version="1.1" xmlns="http://www.w3.org/2000/svg" p-id="8715" xmlns:xlink="http://www.w3.org/1999/xlink" width="200" height="200"><defs><style type="text/css"></style></defs><path d="M 985.558 336.376 l -83.7917 -83.7917 c -19.7233 -19.7233 -50.3073 -21.2219 -68.1774 -3.35167 L 387.64 695.311 c -6.60665 6.59054 -11.8114 11.7953 -27.0551 116.019 a 60.2978 60.2978 0 0 0 59.3632 68.9993 a 62.0059 62.0059 0 0 0 10.4417 -0.886258 c 100.953 -17.3384 106.351 -22.6882 112.49 -28.8759 l 446.03 -446.014 c 17.8702 -17.8219 16.3555 -48.4381 -3.35167 -68.1774 Z M 511.475 813.602 c -5.83319 1.93366 -25.6048 7.25121 -89.2543 18.1764 a 11.9403 11.9403 0 0 1 -13.8095 -13.4711 c 9.53936 -65.1158 14.583 -85.7898 16.3877 -91.8486 l 441.034 -441.034 a 7.89576 7.89576 0 0 1 1.80474 1.33745 l 83.7917 83.7917 a 7.55737 7.55737 0 0 1 1.33744 1.80474 Z"  p-id="8716"></path><path d="M 841.968 621.204 a 32.2276 32.2276 0 0 0 -32.2276 32.2276 v 193.978 c 0 61.8286 -56.0276 112.136 -124.882 112.136 H 211.951 c -68.8542 0 -124.882 -50.3073 -124.882 -112.136 V 176.608 C 87.0696 114.763 143.097 64.456 211.951 64.456 H 684.891 c 61.9092 0 115.085 41.5575 123.689 96.6827 a 32.2276 32.2276 0 1 0 63.6817 -9.94221 c -6.5422 -41.8959 -29.2465 -80.3756 -63.9234 -108.269 A 197.313 197.313 0 0 0 684.891 0.000838 H 211.951 C 107.55 0.000838 22.6144 79.2323 22.6144 176.608 v 670.801 c 0 97.3756 84.9358 176.591 189.337 176.591 H 684.891 c 104.401 0 189.337 -79.2154 189.337 -176.591 V 653.431 a 32.2276 32.2276 0 0 0 -32.2598 -32.2276 Z" p-id="8717"></path><path d="M 492.783 242.159 H 227.501 a 24.1707 24.1707 0 0 0 0 48.3414 h 265.281 a 24.1707 24.1707 0 0 0 0 -48.3414 Z M 492.783 364.044 H 227.501 a 24.1707 24.1707 0 0 0 0 48.3414 h 265.281 a 24.1707 24.1707 0 0 0 0 -48.3414 Z" p-id="8718"></path></svg>
