<?xml version="1.0" standalone="no"?><!DOCTYPE svg PUBLIC "-//W3C//DTD SVG 1.1//EN" "http://www.w3.org/Graphics/SVG/1.1/DTD/svg11.dtd"><svg t="1567667153972" class="icon" viewBox="0 0 1024 1024" version="1.1" xmlns="http://www.w3.org/2000/svg" p-id="1114" xmlns:xlink="http://www.w3.org/1999/xlink" width="200" height="200"><defs><style type="text/css"></style></defs><path d="M233.5488 193.024h552.6528v64H233.5488v-64z m-1.8432 128.64H784.384v64H231.7056v-64z"  p-id="1115"></path><path d="M95.3856 64h828.9792v512h69.0944v-512c0-35.328-30.9248-64-69.0944-64H95.3856C57.2416 0 26.3168 28.672 26.3168 64V960c0 35.328 30.9248 64 69.0688 64h483.584v-64H95.3856V64z" p-id="1116"></path><path d="M233.088 577.664v64h168.0128c0-22.272 3.5328-43.7248 10.0352-64H233.088z m282.4448-128H231.7056v64h209.9968a236.6976 236.6976 0 0 1 73.8304-64z m467.968 515.072l-143.4368-144.9984a226.1248 226.1248 0 0 0 52.9152-146.0224c0-123.6992-98.048-224-218.9568-224-120.9344 0-218.9568 100.3008-218.9568 224s98.048 224 218.9568 224c43.776 0 84.5568-13.1584 118.784-35.7888l146.4576 148.0704c12.2112 12.4928 32.0256 12.4928 44.2368 0a32.512 32.512 0 0 0 0-45.2608zM506.2656 673.7152c0-88.3712 74.496-160 166.4-160s166.4 71.6288 166.4 160-74.496 160-166.4 160-166.4-71.6288-166.4-160z"  p-id="1117"></path></svg>
