<?xml version="1.0" standalone="no"?><!DOCTYPE svg PUBLIC "-//W3C//DTD SVG 1.1//EN" "http://www.w3.org/Graphics/SVG/1.1/DTD/svg11.dtd"><svg t="1567667433239" class="icon" viewBox="0 0 1026 1024" version="1.1" xmlns="http://www.w3.org/2000/svg" p-id="2887" xmlns:xlink="http://www.w3.org/1999/xlink" width="200.390625" height="200"><defs><style type="text/css"></style></defs><path d="M384.216363 59.877205c19.260501 0 34.92837 15.667869 34.928369 34.92837v289.40649c0 19.260501-15.667869 34.92837-34.928369 34.92837h-289.406491c-19.260501 0-34.92837-15.667869-34.928369-34.92837v-289.40649c0-19.260501 15.667869-34.92837 34.928369-34.92837h289.406491m0-59.877205h-289.406491c-52.392554 0-94.805575 42.41302-94.805574 94.805575v289.40649c0 52.392554 42.41302 94.805575 94.805574 94.805575h289.406491c52.392554 0 94.805575-42.41302 94.805574-94.805575v-289.40649c0-52.392554-42.41302-94.805575-94.805574-94.805575zM929.198723 61.972907c19.260501 0 34.92837 15.667869 34.92837 34.92837v289.40649c0 19.260501-15.667869 34.92837-34.92837 34.92837H639.792233c-19.260501 0-34.92837-15.667869-34.92837-34.92837V96.901277c0-19.260501 15.667869-34.92837 34.92837-34.92837h289.40649m0-59.877205H639.792233c-52.392554 0-94.805575 42.41302-94.805575 94.805575v289.40649c0 52.392554 42.41302 94.805575 94.805575 94.805575h289.40649c52.392554 0 94.805575-42.41302 94.805575-94.805575V96.901277c0-52.392554-42.41302-94.805575-94.805575-94.805575zM386.312065 604.859565c19.260501 0 34.92837 15.667869 34.92837 34.92837v289.40649c0 19.260501-15.667869 34.92837-34.92837 34.92837H96.905575c-19.260501 0-34.92837-15.667869-34.92837-34.92837V639.787935c0-19.260501 15.667869-34.92837 34.92837-34.92837h289.40649m0-59.877205H96.905575c-52.392554 0-94.805575 42.41302-94.805575 94.805575v289.40649c0 52.392554 42.41302 94.805575 94.805575 94.805575h289.40649c52.392554 0 94.805575-42.41302 94.805575-94.805575V639.787935c0-52.392554-42.41302-94.805575-94.805575-94.805575zM929.198723 604.859565c19.260501 0 34.92837 15.667869 34.92837 34.92837v289.40649c0 19.260501-15.667869 34.92837-34.92837 34.92837H639.792233c-19.260501 0-34.92837-15.667869-34.92837-34.92837V639.787935c0-19.260501 15.667869-34.92837 34.92837-34.92837h289.40649m0-59.877205H639.792233c-52.392554 0-94.805575 42.41302-94.805575 94.805575v289.40649c0 52.392554 42.41302 94.805575 94.805575 94.805575h289.40649c52.392554 0 94.805575-42.41302 94.805575-94.805575V639.787935c0-52.392554-42.41302-94.805575-94.805575-94.805575z" p-id="2888" ></path></svg>
